<?xml version="1.0" encoding="UTF-8" standalone="no"?>
<!-- Created with Inkscape (http://www.inkscape.org/) -->

<svg
   width="993.43121mm"
   height="707.07996mm"
   viewBox="0 0 993.43121 707.07996"
   version="1.1"
   id="svg1"
   xml:space="preserve"
   xmlns="http://www.w3.org/2000/svg"
   xmlns:svg="http://www.w3.org/2000/svg"><defs
     id="defs1" /><g
     id="layer1"
     transform="translate(-13.752555,-151.52683)"><path
       id="path7"
       style="fill:#89adff;fill-opacity:1;stroke:none;stroke-width:1.26339;stroke-dasharray:none;stroke-opacity:1"
       d="m 759.92106,151.52683 c -2.59744,0 -1.83391,2.59778 -1.83391,2.59778 l 0.15279,29.33552 -5.34768,5.34834 c 0,0 -4.12504,1.98621 -2.59713,5.806 l -1.06941,22.15458 -13.44591,-1.98604 c 0,0 -6.41719,7.18092 -10.69535,12.52863 -4.27817,5.3477 -12.0703,14.36253 -12.0703,14.36253 0,0 -1.52842,0.45851 -1.22284,4.12549 0.30559,3.667 0,15.58473 0,15.58473 l 1.3756,2.7499 v 24.44682 c 0,0 -0.30588,2.90306 -2.75055,4.88936 -1.98631,0 -3.20823,0.91634 -3.20823,3.20821 v 15.27918 c 0,0 -37.89276,-16.19585 -68.60384,-15.89027 -8.25076,-0.76395 -51.94256,11.88295 -51.94256,11.88295 L 592.26794,512 912.98646,510.82808 c 0.53756,-3.51278 -2.49139,-6.62338 -2.49139,-6.62338 0,0 8.67856,-101.56416 -4.52381,-125.42988 -13.20226,-23.86574 -26.40514,-41.75414 -57.88758,-53.31686 0,0 2.13726,-12.73598 0,-14.87505 l -4.2802,-0.45831 -4.12547,-85.10454 2.59777,-2.44503 c 0,0 -0.45862,-7.94526 1.5277,-9.3204 l -0.45837,-7.63925 c 0,0 -4.43082,-12.83482 -5.5004,-12.9876 0,0 -19.09885,-3.97217 -21.2379,-3.20821 0,0 -16.19612,2.74968 -19.40473,4.43039 -5.19491,2.59745 -10.54258,8.09803 -10.69536,9.62595 -0.45838,4.12537 0,12.3765 0,12.3765 2.29188,1.37512 2.2918,1.52761 0.61109,2.44436 l -5.04217,2.59778 -2.59711,-0.76386 -1.22283,-57.45019 c 0,0 1.22258,-2.59708 -1.98604,-2.90268 -3.20862,-0.30557 -2.13881,3.20888 -2.13881,3.20888 l 1.68049,56.37948 -13.75145,-1.6805 0.30555,-32.5444 c 0,0 8.70933,-7.63979 8.70933,-8.70931 0,-1.06955 -1.83358,-3.5141 -4.58383,-0.76387 -2.75026,2.75026 -4.58382,4.43105 -4.58382,4.43105 v -26.73839 c 0,0 0.61142,-1.83393 -1.98606,-1.83393 z m -1.54532,37.31232 0.6026,28.21651 -5.42604,-0.72339 0.84417,-23.75476 c 2.77342,-2.89401 3.97927,-3.73836 3.97927,-3.73836 z" /><path
       style="fill:#7593fa;fill-opacity:1;stroke:none;stroke-width:1.26339;stroke-dasharray:none;stroke-opacity:1"
       d="m 117.42287,485.06765 -2.03656,-149.29697 c 0,0 4.6507,-7.84803 7.26671,-10.75473 2.616,-2.90668 49.41358,-69.76034 49.41358,-69.76034 0,0 2.03467,-1.45334 6.97602,-1.45334 4.94137,0 159.57677,-1.45335 159.57677,-1.45335 0,0 3.19738,-2.03467 6.39471,3.7787 3.19734,5.81337 27.3228,43.01889 27.3228,43.01889 l 29.3295,2.42456 c 0,0 6.95859,-3.7614 9.59155,-3.7614 2.63298,0 69.7739,1.8807 69.7739,1.8807 l 26.32978,-25.20136 c 0,0 37.80202,-13.91715 39.49463,-11.84839 1.69264,2.06876 80.11775,78.04897 80.11775,78.04897 0,0 2.82105,-1.12842 3.00913,13.54101 0.18806,14.66946 1.12841,117.73169 1.12841,117.73169 L 394.35361,512 Z"
       id="path6" /><path
       style="fill:#587bf0;fill-opacity:1;stroke:none;stroke-width:1.26339;stroke-dasharray:none;stroke-opacity:1"
       d="m 440.53299,457.2754 4.29029,-103.64695 c 0,0 2.30705,-5.29263 -2.30702,-5.83545 -4.61412,-0.54284 -4.88554,-5.29265 0.40711,-10.58529 5.29264,-5.29265 13.97799,-10.31386 13.97799,-10.31386 -0.54281,-6.2426 0.27143,-10.17815 4.20698,-10.17815 3.93555,0 29.31309,-0.40713 29.31309,-0.40713 0,0 5.02122,-1.6285 5.02122,5.42836 0,7.05686 -0.27141,5.83547 -0.27141,5.83547 17.37071,16.55646 18.04926,19.67776 17.77784,23.07047 -0.1357,1.76422 -5.97117,1.3571 -5.97117,1.3571 l -3.66413,96.35319 20.08487,-0.13572 45.59812,-39.08411 c 0,0 1.94196,-3.12128 4.56727,0.27144 2.62531,3.3927 43.47362,41.66256 43.47362,41.66256 l 22.79907,-1.35708 2.03564,-97.71028 c 0,0 1.89991,-2.44277 -3.12131,-2.44277 -5.02121,0 -1.4928,-6.10688 9.63531,-16.69215 l 6.10689,-7.19257 c 0,0 -2.17132,-10.17815 2.57848,-10.44958 l 30.26305,0.27143 c 0,0 5.29263,-2.30704 5.42833,3.79984 l 0.13572,7.05686 c 0,0 22.25623,18.9992 22.12053,20.76343 0,0 0.67855,2.17134 -2.57847,2.17134 0,0 -5.29264,-1.62851 -5.42835,1.35707 l -0.40713,113.04538 48.3123,1.08567 c 0,0 1.6285,-2.9856 4.34268,0.13572 2.71417,3.12128 54.28357,44.90811 54.28357,44.90811 l -1.37652,65.92453 -370.06284,-5.34387 z"
       id="path5" /><path
       style="fill:#4166e2;fill-opacity:1;stroke:none;stroke-width:1.26339;stroke-dasharray:none;stroke-opacity:1"
       d="M 78.151176,832.7835 78.61432,548.53322 c 0,0 -4.103071,-9.03898 -4.244558,-12.16771 -0.141474,-3.12872 -1.8393,-6.93274 1.697826,-7.64019 3.537138,-0.70743 12.733663,-39.89876 8.206145,-52.49096 -1.697814,-2.82967 -1.273367,-4.95195 9.903958,-4.52748 11.177309,0.42445 145.163599,2.12226 145.163599,2.12226 0,0 -0.42445,-14.85592 4.38604,-14.85592 4.81048,0 134.12781,-2.12228 134.12781,-2.12228 l -0.28297,-10.3284 c 0,0 -1.98078,-3.8201 3.25414,-3.8201 0,0 -0.14147,-12.02623 1.98081,-11.88475 2.12228,0.14149 5.37641,-0.28296 5.6594,2.40525 0.28295,2.68822 0.14149,9.33802 0.14149,9.33802 h 1.69781 c 0,0 -1.13187,-11.60178 0.56595,-11.60178 1.6978,0 5.80088,-0.8489 6.08384,0.70744 0.28297,1.55632 0.14148,11.3188 0.14148,11.3188 2.82971,-0.28298 3.96159,6.36682 3.39565,13.29958 0,0 24.33541,1.98081 40.04026,0.9904 15.70484,-0.9904 122.95048,-2.12228 122.95048,-2.12228 0,0 0.9904,-3.25415 1.13188,3.96158 0.14149,7.21574 2.12228,37.35206 5.09346,39.75731 2.97119,2.40523 3.85522,319.14575 3.85522,319.14575 z"
       id="path3" /><path
       style="fill:#2b51d1;fill-opacity:1;stroke:none;stroke-width:1.26339;stroke-dasharray:none;stroke-opacity:1"
       d="m 932.60514,838.70657 2.12063,-161.86698 0.20303,-111.67505 c 0,0 5.27919,0 5.68529,-6.2944 0.14371,-1.40497 -3.02011,-1.28779 -3.02011,-1.28779 0,0 -11.36633,-18.16269 -11.83505,-29.06029 -0.4687,-10.89762 0,-13.00683 0.23436,-14.41297 0.23436,-1.40613 -0.82024,-3.16382 -2.57792,-2.10921 -2.22639,-1.1718 -7.38226,-1.1718 -10.4289,-1.1718 -3.04665,0 -131.59156,-1.64049 -134.28668,-0.93742 -2.6951,0.70308 -3.51536,-0.93743 -3.39817,5.97611 0.11724,6.91353 1.87486,16.87372 -1.28896,18.51421 l -130.18542,-3.86687 -0.11725,-11.36634 c 0,0 1.64051,-4.45279 -1.99203,-4.45279 -3.63254,0 -39.02048,-1.52332 -39.02048,-1.52332 l 0.3516,-2.92947 c 0,0 1.17179,-1.87485 -4.56996,-4.21842 -5.74175,-2.34358 -13.47553,-6.56201 -13.47553,-6.56201 0,0 -32.45849,-0.82024 -34.45052,-0.46871 -6.91353,3.98406 -13.94425,7.38226 -13.94425,9.25712 0,1.87485 0,3.16382 0,3.16382 -7.49944,-0.82025 -7.38225,1.75767 -7.38225,4.3356 0,2.57793 -0.23436,3.98407 3.28101,4.80431 1.17178,4.56997 0,13.70991 0,13.70991 l -64.56543,-2.2264 c 0,0 2.81231,-5.50738 2.46077,-7.73379 -0.35154,-2.22639 -3.8669,-3.98407 -3.8669,-3.98407 0.93743,-4.10124 0,-7.03071 -2.22639,-6.91354 -2.2264,0.11724 -2.81229,4.45279 -2.92948,5.97612 l -1.5233,-0.23436 c 1.40613,-5.27304 1.28894,-9.49146 -0.70308,-9.84299 -1.99204,-0.35155 -5.15586,0.35153 -4.33561,9.02274 -4.45279,2.34356 -4.80431,9.02275 -4.92149,13.59272 0,0 -59.40955,-2.25399 -60.11263,-0.46872 0,0 -0.46871,7.49943 0.93743,8.43686 5.03867,1.40614 4.80432,16.87372 0.46871,27.88851 -4.3356,11.01479 -6.44482,16.99089 -11.24914,19.1001 -0.46872,6.91355 6.44483,12.42094 8.2025,14.29579 -0.46872,16.17066 -0.23083,133.1429 -0.23083,133.1429 l 1.2485,63.11641 z"
       id="path4" /><path
       style="fill:#2144bb;fill-opacity:1;stroke:none;stroke-width:1.26339;stroke-dasharray:none;stroke-opacity:1"
       d="m 124.05328,819.58129 c -49.947504,17.0654 -110.300725,26.22245 -110.300725,26.22245 110.504965,4.97441 109.028115,-15.90206 184.942535,-11.63185 86.35268,2.37232 121.70032,24.43496 210.66255,24.43496 88.96222,0 210.66253,-32.97533 275.1898,-30.12854 64.52727,2.84679 100.11215,1.18616 125.97051,5.45635 25.85834,4.27019 85.40373,24.43495 116.95566,22.29986 31.55193,-2.13509 67.84853,-10.91269 79.71019,-18.97861 0,0 -32.02643,5.93081 -44.36254,4.50743 -12.33609,-1.42341 -56.93582,-2.60957 -83.98033,-19.92754 9.96378,-21.82541 -0.71169,-69.74638 -0.71169,-69.74638 0,0 2.37233,-5.45636 1.89786,-9.01485 -0.47447,-3.55849 -4.27018,-18.2669 -6.6425,-17.79244 -19.21585,2.37233 -134.98536,0.7117 -134.98536,0.7117 0,0 -1.18615,6.64251 -4.03295,8.54038 -11.86163,1.66062 -32.0264,-2.13511 -32.0264,-2.13511 l 2.60955,-22.53709 c 0,0 -1.18617,-4.74463 -3.55849,-0.71171 0,0 -28.23068,-0.94891 -29.65408,-2.60954 -1.42339,-1.66062 3.79573,-44.83696 2.1351,-45.78589 -1.66063,-0.94893 -47.92098,-2.37232 -51.00499,-4.03295 -1.89787,-7.82867 -20.63924,-38.90615 -22.06263,-39.61785 l -51.24224,-2.13509 c 0,0 4.74464,-75.43997 3.79571,-76.86337 -5.69357,-0.94891 -17.55521,-1.18614 -16.36903,0.94894 2.13507,4.57093 0.71167,14.94566 0.71167,14.94566 l -2.84677,59.30814 -19.21584,-0.7117 c 0,0 -5.69359,2.84679 -0.23723,5.21912 5.45635,2.37233 22.29986,5.69358 22.5371,13.75948 l -75.20273,-1.42338 c 0,0 -1.18618,2.13509 0.71169,2.60956 l -0.94893,8.54038 c 0,0 -3.79572,0.23723 -4.98188,8.0659 l -16.36904,91.57177 c 0,0 -4.2702,0.94894 -9.48932,-7.3542 l -3.32126,1.42339 -207.5785,-3.55849 1.4234,-175.78935 c 0,0 1.89785,-2.84678 -6.40529,-3.08402 -5.93082,-0.23723 -6.40528,0.23724 -6.40528,3.32126 l -1.18616,80.18461 c 0,0 -7.59145,-1.89785 -7.59145,3.08402 l 0.23723,97.02813 -111.024835,-6.40528 c 0,0 -0.948941,4.50742 0.474465,8.77762 0,0 23.18444,78.75963 33.77345,81.01412 z"
       id="path2" /></g></svg>
